<svg width="964" height="72" viewBox="0 0 964 72" fill="none" xmlns="http://www.w3.org/2000/svg">
<path d="M496.427 56.2153L483.827 65.4719C483.313 65.8518 482.692 66.0566 482.055 66.0566C481.418 66.0566 480.797 65.8518 480.283 65.4719L467.683 56.2153M496.427 56.2153C499.778 53.7184 502.499 50.4636 504.371 46.7136C506.242 42.9636 507.211 38.8234 507.2 34.6271V19.1255C507.2 18.4914 507.001 17.8735 506.63 17.3608M496.427 56.2153L495.232 54.6115L482.643 63.8601L482.638 63.8638C482.468 63.9897 482.263 64.0566 482.055 64.0566C481.847 64.0566 481.643 63.9897 481.472 63.8638L481.467 63.8601L468.87 54.6054L467.683 56.2153M496.427 56.2153L495.243 54.6035L495.237 54.6078C498.334 52.2991 500.85 49.2894 502.581 45.8206C504.313 42.3499 505.21 38.5174 505.2 34.6325L505.2 34.6271L505.2 19.1255V19.1242C505.2 18.9104 505.133 18.7033 505.009 18.5328L506.63 17.3608M506.63 17.3608C506.259 16.8481 505.736 16.467 505.137 16.2724M506.63 17.3608L505.009 18.5328C504.886 18.3626 504.715 18.2383 504.52 18.175M505.137 16.2724L483.37 9.21898C482.474 8.92701 481.51 8.92701 480.614 9.21898L458.863 16.2724C458.264 16.467 457.741 16.8481 457.37 17.3608C456.999 17.8735 456.8 18.4914 456.8 19.1255V34.6271M505.137 16.2724L504.52 18.175M505.137 16.2724L504.519 18.1747M456.8 34.6271C456.802 38.8329 457.788 42.9792 459.678 46.7299C461.569 50.4806 464.312 53.7302 467.683 56.2153M456.8 34.6271L458.8 34.6264L458.8 19.1255L458.8 19.1242C458.8 18.9104 458.867 18.7033 458.991 18.5328C459.114 18.3625 459.286 18.2381 459.48 18.1749C459.48 18.1748 459.48 18.1748 459.481 18.1747L481.231 11.1214L481.234 11.1205C481.727 10.9598 482.257 10.9598 482.75 11.1205L482.754 11.1216L504.519 18.1747M456.8 34.6271H458.8C458.802 38.5206 459.715 42.3585 461.464 45.8296C463.214 49.3004 465.751 52.3063 468.869 54.6046L468.867 54.6035L467.683 56.2153M504.52 18.175L504.519 18.1747M504.52 18.175L504.519 18.1747" fill="url(#paint0_radial_7_2111)" stroke="#E2C9FF" stroke-width="4"/>
<g filter="url(#filter0_d_7_2111)">
<path d="M492.561 32.613L489.066 36.0114C488.868 36.2056 488.721 36.4449 488.636 36.7088C488.552 36.9726 488.532 37.2531 488.58 37.526L489.415 42.342C489.471 42.6574 489.437 42.9822 489.317 43.2792C489.197 43.5763 488.996 43.8336 488.737 44.0219C488.478 44.2102 488.171 44.3219 487.851 44.3442C487.532 44.3664 487.213 44.2985 486.93 44.148L482.483 41.8953C482.237 41.7677 481.964 41.701 481.687 41.701C481.409 41.701 481.136 41.7677 480.89 41.8953L476.541 44.148C476.258 44.2985 475.938 44.3664 475.619 44.3442C475.299 44.3219 474.992 44.2102 474.733 44.0219C474.474 43.8336 474.273 43.5763 474.153 43.2792C474.033 42.9822 473.999 42.6574 474.055 42.342L474.89 37.526C474.938 37.2531 474.919 36.9726 474.834 36.7088C474.75 36.4449 474.602 36.2056 474.404 36.0114L470.831 32.613C470.598 32.3909 470.432 32.1072 470.352 31.7947C470.273 31.4823 470.284 31.1538 470.383 30.8471C470.483 30.5405 470.667 30.2683 470.915 30.0619C471.162 29.8555 471.463 29.7234 471.783 29.6807L476.657 29.0011C476.933 28.9621 477.195 28.857 477.422 28.6947C477.649 28.5324 477.832 28.3177 477.958 28.0689L480.133 23.6996C480.277 23.4136 480.498 23.1732 480.77 23.0052C481.043 22.8372 481.357 22.7483 481.677 22.7483C481.997 22.7483 482.311 22.8372 482.584 23.0052C482.856 23.1732 483.077 23.4136 483.221 23.6996L485.396 28.0689C485.52 28.3187 485.704 28.5343 485.93 28.6967C486.157 28.8592 486.42 28.9637 486.697 29.0011L491.532 29.7001C491.848 29.7456 492.144 29.8784 492.388 30.0835C492.632 30.2886 492.814 30.5579 492.913 30.8609C493.012 31.164 493.024 31.4886 492.948 31.7982C492.872 32.1078 492.711 32.3901 492.484 32.613H492.561Z" fill="url(#paint1_linear_7_2111)"/>
</g>
<rect y="35" width="422" height="2" rx="1" fill="#E2C9FF"/>
<rect x="542" y="35" width="422" height="2" rx="1" fill="#E2C9FF"/>
<defs>
<filter id="filter0_d_7_2111" x="466.3" y="18.7483" width="30.6974" height="29.6001" filterUnits="userSpaceOnUse" color-interpolation-filters="sRGB">
<feFlood flood-opacity="0" result="BackgroundImageFix"/>
<feColorMatrix in="SourceAlpha" type="matrix" values="0 0 0 0 0 0 0 0 0 0 0 0 0 0 0 0 0 0 127 0" result="hardAlpha"/>
<feOffset/>
<feGaussianBlur stdDeviation="2"/>
<feComposite in2="hardAlpha" operator="out"/>
<feColorMatrix type="matrix" values="0 0 0 0 1 0 0 0 0 0.803922 0 0 0 0 0 0 0 0 0.4 0"/>
<feBlend mode="normal" in2="BackgroundImageFix" result="effect1_dropShadow_7_2111"/>
<feBlend mode="normal" in="SourceGraphic" in2="effect1_dropShadow_7_2111" result="shape"/>
</filter>
<radialGradient id="paint0_radial_7_2111" cx="0" cy="0" r="1" gradientUnits="userSpaceOnUse" gradientTransform="translate(507.298 16.5754) rotate(138.571) scale(38.4019 34.1656)">
<stop stop-color="#B373FF"/>
<stop offset="1" stop-color="#965EFB"/>
</radialGradient>
<linearGradient id="paint1_linear_7_2111" x1="487.4" y1="24.75" x2="482" y2="35.1" gradientUnits="userSpaceOnUse">
<stop stop-color="#FFE061"/>
<stop offset="1" stop-color="#FFCD00"/>
</linearGradient>
</defs>
</svg>
