<svg width="74" height="24" viewBox="0 0 74 24" fill="none" xmlns="http://www.w3.org/2000/svg">
<path fill-rule="evenodd" clip-rule="evenodd" d="M5.2977 22.9961C3.54707 22.9961 2.2126 22.5394 1.3307 21.6386C0.572453 20.8657 0.134326 19.7717 0.0301291 18.3876L0.018203 18.2552C0.00753227 18.0785 0 17.8986 0 17.7117V6.28779C0 4.5844 0.446915 3.26236 1.3307 2.36093C2.21323 1.46015 3.5477 1.00342 5.2977 1.00342C7.00815 1.00342 8.31751 1.44494 9.18937 2.31596C10.0625 3.18697 10.5257 4.45264 10.5659 6.07431V8.62274H10.3048C9.53084 8.62274 8.8931 8.37189 8.35266 7.85625C7.81724 7.34504 7.55675 6.75022 7.55675 6.03757C7.53416 5.16085 7.33769 4.56159 6.95794 4.19989C6.58446 3.84451 6.06285 3.66334 5.40692 3.66334C4.75035 3.66334 4.22372 3.84895 3.84083 4.21509C3.45355 4.58377 3.25771 5.20583 3.25771 6.06418V17.9037C3.25771 18.7772 3.44915 19.3777 3.84397 19.7407C4.22498 20.0942 4.75098 20.2728 5.40692 20.2728C6.06222 20.2728 6.58823 20.0935 6.97049 19.7388C7.35903 19.3796 7.55675 18.7607 7.55675 17.8998V13.2046H7.31949C6.87885 13.2046 6.51353 13.0652 6.20345 12.7808C5.90028 12.5015 5.7534 12.174 5.7534 11.7806V10.4813H7.59944C8.00178 10.4813 8.39095 10.5548 8.75627 10.6999C9.1197 10.8449 9.43982 11.0457 9.70847 11.2966C9.97336 11.5456 10.1855 11.842 10.3374 12.1778C10.4893 12.5116 10.5659 12.8632 10.5659 13.2236V17.68C10.5659 19.3885 10.1227 20.7156 9.24775 21.6265C8.37651 22.5349 7.0477 22.9961 5.2977 22.9961Z" fill="#965EFB"/>
<path fill-rule="evenodd" clip-rule="evenodd" d="M18.8408 22.9961C17.0757 22.9961 15.7356 22.5299 14.8556 21.6101C13.9743 20.6877 13.5268 19.3556 13.5268 17.649V3.65194C13.5268 3.2915 13.6033 2.94562 13.7534 2.62446C13.9046 2.29822 14.1118 2.01126 14.3685 1.77181C14.6246 1.53173 14.9296 1.34169 15.273 1.20739C15.6176 1.07247 15.9867 1.00342 16.3689 1.00342H16.7851V17.8682C16.7851 18.7297 16.9822 19.3524 17.3726 19.7217C17.7574 20.0872 18.2878 20.2728 18.9494 20.2728C19.6116 20.2728 20.1426 20.0872 20.5274 19.7211C20.9166 19.3524 21.1149 18.7291 21.1149 17.8682V3.6209C21.1149 2.88798 21.3779 2.28302 21.9177 1.77055C22.4632 1.2549 23.111 1.00342 23.8981 1.00342H24.1234V17.649C24.1234 19.3543 23.6765 20.6865 22.7946 21.6101C21.9146 22.5299 20.5845 22.9961 18.8408 22.9961Z" fill="#965EFB"/>
<path fill-rule="evenodd" clip-rule="evenodd" d="M31.5748 3.72605C31.2622 3.72605 30.991 3.84071 30.7695 4.06496C30.5479 4.28921 30.4362 4.5635 30.4362 4.8796V11.1408H32.694C33.4164 11.1408 33.9883 10.9495 34.3937 10.5738C34.491 10.4832 34.5795 10.3711 34.6574 10.2412C34.8978 9.83836 35.0145 9.28155 35.0145 8.53723V6.29919C35.0145 5.43895 34.862 4.81498 34.5475 4.39056C34.2218 3.94967 33.7027 3.72605 33.0053 3.72605H31.5748ZM37.514 22.9961C36.8254 22.9961 36.2542 22.7617 35.7684 22.2796C35.2819 21.7988 35.0453 21.2287 35.0453 20.5357V16.9585C35.0453 15.8214 34.8488 15.041 34.4433 14.5729C34.0341 14.1016 33.3938 13.8634 32.5389 13.8634H30.4362V22.9929C30.0476 22.9771 29.6842 22.8954 29.3534 22.749C28.9787 22.585 28.6422 22.3531 28.3529 22.0617C28.0635 21.7703 27.835 21.4308 27.6718 21.0532C27.5092 20.677 27.4276 20.2608 27.4276 19.8142V3.52651C27.4276 2.83223 27.6643 2.25008 28.1526 1.74774C28.6391 1.2473 29.2191 1.00342 29.9265 1.00342H33.0988C34.8476 1.00342 36.1243 1.4082 36.8938 2.20447C37.664 3.00264 38.0551 4.26387 38.0551 5.95142V7.71119C38.0551 8.64998 37.9207 9.46525 37.6565 10.1329C37.5466 10.4117 37.4192 10.66 37.2767 10.8734C36.9315 11.3891 36.4651 11.7856 35.8914 12.0517L35.4062 12.2766L35.8971 12.4888C36.7174 12.8442 37.2717 13.3864 37.5912 14.1485C37.9195 14.9302 38.0858 15.9101 38.0858 17.063V22.9961H37.514Z" fill="#965EFB"/>
<path fill-rule="evenodd" clip-rule="evenodd" d="M46.6725 22.9961C44.9074 22.9961 43.5673 22.5299 42.6879 21.6101C41.806 20.6871 41.3585 19.3549 41.3585 17.649V3.65194C41.3585 3.2915 41.4351 2.94562 41.5851 2.62446C41.7364 2.29822 41.9435 2.01126 42.2002 1.77181C42.4569 1.53236 42.7614 1.34169 43.1047 1.20739C43.4499 1.07247 43.819 1.00342 44.2007 1.00342H44.6168V17.8682C44.6168 18.7297 44.8139 19.3524 45.2043 19.7217C45.5891 20.0872 46.1195 20.2728 46.7817 20.2728C47.4439 20.2728 47.9743 20.0872 48.3591 19.7211C48.7489 19.3524 48.9466 18.7291 48.9466 17.8682V3.6209C48.9466 2.88798 49.2096 2.28302 49.7494 1.77055C50.2949 1.2549 50.9433 1.00342 51.7304 1.00342H51.9551V17.649C51.9551 19.3543 51.5082 20.6865 50.6263 21.6101C49.7463 22.5299 48.4162 22.9961 46.6725 22.9961Z" fill="#965EFB"/>
<path fill-rule="evenodd" clip-rule="evenodd" d="M60.5423 22.9961C58.6354 22.9961 57.2632 22.3721 56.3493 21.0868C55.8327 20.3856 55.4919 19.5538 55.3337 18.6131L55.3042 18.3439L55.3055 18.3078C55.3055 18.2527 55.2992 18.19 55.286 18.1203C55.2785 18.0829 55.2747 18.0519 55.2747 18.0253V14.3505C55.5515 14.3702 55.8152 14.4259 56.0606 14.5159C56.3769 14.6318 56.6738 14.799 56.9437 15.0119C57.3122 15.2868 57.6022 15.6289 57.8131 16.0337C58.0215 16.4372 58.1276 16.8952 58.1276 17.3975V17.8998C58.1276 18.1336 58.1407 18.292 58.1665 18.3978C58.2343 18.6499 58.3353 18.8995 58.4678 19.1446C58.8858 19.894 59.5832 20.2728 60.5423 20.2728C61.48 20.2728 62.1667 19.894 62.5829 19.1471C62.9162 18.5872 63.08 17.6642 63.08 16.3308V4.2797L63.0851 3.71909C63.097 2.22157 64.3134 1.00342 65.7973 1.00342H65.9021V15.7663C65.9021 17.4691 65.7603 18.7854 65.4784 19.6793C64.702 21.9084 63.0863 22.9961 60.5423 22.9961Z" fill="#965EFB"/>
<path d="M70.56 3.85435C70.56 2.16737 71.9276 0.799805 73.6145 0.799805V21.6725C73.6145 22.516 72.9308 23.1998 72.0873 23.1998H71.2124C70.8521 23.1998 70.56 22.9077 70.56 22.5474V3.85435Z" fill="#965EFB"/>
</svg>
